<svg height="39.139" viewBox="0 0 51.349 39.139" width="51.349" xmlns="http://www.w3.org/2000/svg"><path d="m43.469 3.656a42.344 42.344 0 0 0 -10.452-3.242.159.159 0 0 0 -.168.079 29.5 29.5 0 0 0 -1.3 2.673 39.092 39.092 0 0 0 -11.739 0 27.053 27.053 0 0 0 -1.323-2.672.165.165 0 0 0 -.168-.079 42.226 42.226 0 0 0 -10.452 3.241.15.15 0 0 0 -.069.059 43.337 43.337 0 0 0 -7.586 29.227.176.176 0 0 0 .067.12 42.581 42.581 0 0 0 12.821 6.481.166.166 0 0 0 .18-.059 30.434 30.434 0 0 0 2.62-4.266.163.163 0 0 0 -.089-.226 28.041 28.041 0 0 1 -4.005-1.909.165.165 0 0 1 -.016-.273c.269-.2.538-.412.8-.623a.159.159 0 0 1 .166-.022 30.367 30.367 0 0 0 25.806 0 .158.158 0 0 1 .168.02c.257.212.526.424.8.626a.165.165 0 0 1 -.014.273 26.313 26.313 0 0 1 -4.016 1.906.164.164 0 0 0 -.087.228 34.171 34.171 0 0 0 2.621 4.265.163.163 0 0 0 .18.061 42.44 42.44 0 0 0 12.842-6.481.165.165 0 0 0 .067-.118 43.052 43.052 0 0 0 -7.588-29.228.131.131 0 0 0 -.066-.061zm-26.31 23.452a4.935 4.935 0 0 1 -4.615-5.175 4.908 4.908 0 0 1 4.615-5.175 4.881 4.881 0 0 1 4.615 5.175 4.908 4.908 0 0 1 -4.615 5.175zm17.062 0a4.935 4.935 0 0 1 -4.615-5.175 4.908 4.908 0 0 1 4.615-5.175 4.881 4.881 0 0 1 4.615 5.175 4.9 4.9 0 0 1 -4.615 5.175z" fill="#2661fe" transform="translate(0 -.412)"/></svg>