<svg xmlns="http://www.w3.org/2000/svg" width="49.301" height="39.139" viewBox="0 0 49.301 39.139">
  <path id="medium" d="M5.846,10.985a1.907,1.907,0,0,0-.622-1.611L.622,3.828V3H14.916L25.963,27.229,35.676,3H49.3v.828L45.365,7.6a1.153,1.153,0,0,0-.438,1.105V36.434a1.151,1.151,0,0,0,.438,1.1l3.843,3.774v.828H29.875v-.828l3.983-3.866c.39-.39.39-.505.39-1.1V13.93L23.178,42.049h-1.5L8.792,13.93V32.776A2.6,2.6,0,0,0,9.5,34.937l5.179,6.282v.83H0v-.83l5.179-6.282a2.5,2.5,0,0,0,.668-2.161V10.985Z" transform="translate(0 -3)" fill="#2661fe" fill-rule="evenodd"/>
</svg>
