<svg xmlns="http://www.w3.org/2000/svg" width="48.161" height="39.139" viewBox="0 0 48.161 39.139">
  <path id="twitter" d="M48.161,6.882a19.727,19.727,0,0,1-5.675,1.555A9.9,9.9,0,0,0,46.831,2.97a19.794,19.794,0,0,1-6.275,2.4,9.887,9.887,0,0,0-16.838,9.01A28.05,28.05,0,0,1,3.353,4.056,9.894,9.894,0,0,0,6.409,17.248a9.839,9.839,0,0,1-4.473-1.236,9.888,9.888,0,0,0,7.925,9.813,9.9,9.9,0,0,1-4.463.169,9.888,9.888,0,0,0,9.231,6.861A19.867,19.867,0,0,1,0,36.948a27.972,27.972,0,0,0,15.147,4.439c18.345,0,28.71-15.494,28.084-29.39a20.117,20.117,0,0,0,4.931-5.115Z" transform="translate(0 -2.248)" fill="#2661fe"/>
</svg>
